<svg xmlns="http://www.w3.org/2000/svg" xmlns:xlink="http://www.w3.org/1999/xlink" preserveAspectRatio="xMidYMid meet" version="1.0" viewBox="-0.2 -1.6 402.5 501.0" zoomAndPan="magnify" style="fill: rgb(0, 0, 0);" original_string_length="46641"><defs><clipPath id="__id668_s3t2f7lb3"><path d="M 336 263 L 402.300781 263 L 402.300781 276 L 336 276 Z M 336 263"/></clipPath><clipPath id="__id669_s3t2f7lb3"><path d="M 251 272 L 402.300781 272 L 402.300781 307 L 251 307 Z M 251 272"/></clipPath><clipPath id="__id670_s3t2f7lb3"><path d="M 177 113 L 213 113 L 213 499.371094 L 177 499.371094 Z M 177 113"/></clipPath></defs><g><g id="__id671_s3t2f7lb3"><path d="M 150.953125 296.253906 C 150.488281 296.253906 150.027344 296.042969 149.738281 295.640625 C 149.261719 294.980469 149.382812 294.070312 150.03125 293.578125 C 150.058594 293.558594 150.164062 293.484375 150.191406 293.46875 C 151.820312 292.390625 153.269531 291.210938 154.699219 289.804688 C 161.71875 282.929688 165.574219 272.863281 168.152344 264.859375 C 175.695312 241.292969 177.089844 221.386719 172.414062 204.007812 C 169.382812 192.726562 163.554688 182.019531 157.917969 171.664062 C 154.917969 166.15625 151.816406 160.464844 149.179688 154.753906 C 148.832031 154.003906 149.160156 153.109375 149.910156 152.765625 C 150.664062 152.414062 151.554688 152.742188 151.902344 153.496094 C 154.5 159.113281 157.578125 164.765625 160.550781 170.230469 C 166.273438 180.738281 172.1875 191.605469 175.3125 203.226562 C 180.140625 221.183594 178.730469 241.640625 171.007812 265.773438 C 168.324219 274.109375 164.289062 284.613281 156.800781 291.945312 C 155.234375 293.484375 153.636719 294.785156 151.917969 295.917969 L 150.972656 294.75 L 151.824219 295.984375 C 151.5625 296.167969 151.257812 296.253906 150.953125 296.253906" style="fill: rgb(84, 84, 84);"/></g><g id="__id672_s3t2f7lb3"><path d="M 155.75 292.375 C 155.109375 292.375 154.515625 291.960938 154.316406 291.3125 C 146.878906 267.054688 146.828125 240.390625 154.183594 216.230469 C 154.425781 215.4375 155.261719 214.988281 156.054688 215.230469 C 156.847656 215.472656 157.296875 216.308594 157.054688 217.101562 C 149.871094 240.699219 149.917969 266.742188 157.183594 290.433594 C 157.425781 291.226562 156.980469 292.066406 156.191406 292.308594 C 156.042969 292.351562 155.894531 292.375 155.75 292.375" style="fill: rgb(84, 84, 84);"/></g><g id="__id673_s3t2f7lb3"><path d="M 120.925781 246.339844 C 120.101562 246.339844 119.433594 245.671875 119.425781 244.847656 C 119.414062 242.554688 119.371094 240.554688 119.296875 238.730469 C 118.273438 207.023438 111.769531 176.078125 99.957031 146.75 C 96.464844 138.089844 91.945312 128.195312 84.945312 120.464844 C 80.375 115.417969 74.578125 111.007812 68.96875 106.746094 C 65.113281 103.8125 61.128906 100.777344 57.585938 97.570312 C 56.96875 97.015625 56.921875 96.066406 57.480469 95.449219 C 58.035156 94.839844 58.984375 94.789062 59.597656 95.347656 C 63.046875 98.46875 66.980469 101.460938 70.785156 104.355469 C 76.503906 108.703125 82.410156 113.199219 87.167969 118.449219 C 94.484375 126.53125 99.144531 136.722656 102.738281 145.628906 C 114.683594 175.285156 121.261719 206.574219 122.292969 238.621094 C 122.371094 240.464844 122.414062 242.5 122.425781 244.828125 C 122.433594 245.65625 121.765625 246.335938 120.9375 246.339844 C 120.933594 246.339844 120.929688 246.339844 120.925781 246.339844" style="fill: rgb(84, 84, 84);"/></g><g id="__id674_s3t2f7lb3"><path d="M 120.796875 240.167969 C 120.421875 240.167969 120.050781 240.03125 119.757812 239.753906 C 109.003906 229.488281 99.941406 215.375 92.816406 197.808594 C 87.664062 185.066406 83.871094 171.648438 80.207031 158.675781 C 78.457031 152.492188 76.648438 146.09375 74.71875 139.863281 C 74.472656 139.070312 74.917969 138.230469 75.707031 137.988281 C 76.496094 137.742188 77.339844 138.183594 77.585938 138.976562 C 79.527344 145.242188 81.339844 151.65625 83.09375 157.859375 C 86.734375 170.757812 90.503906 184.09375 95.597656 196.679688 C 102.558594 213.851562 111.386719 227.613281 121.832031 237.585938 C 122.429688 238.15625 122.453125 239.105469 121.878906 239.703125 C 121.585938 240.011719 121.191406 240.167969 120.796875 240.167969" style="fill: rgb(84, 84, 84);"/></g><g id="__id675_s3t2f7lb3"><path d="M 137.5625 271.535156 C 136.84375 271.535156 136.210938 271.015625 136.085938 270.285156 C 134.359375 260.070312 133.734375 249.675781 134.230469 239.390625 C 135.019531 222.898438 138.671875 206.410156 142.199219 190.46875 C 144.847656 178.492188 147.589844 166.105469 149.050781 153.945312 C 149.148438 153.121094 149.898438 152.535156 150.71875 152.636719 C 151.542969 152.734375 152.128906 153.480469 152.03125 154.304688 C 150.550781 166.609375 147.792969 179.070312 145.128906 191.117188 C 141.625 206.9375 138.003906 223.296875 137.226562 239.53125 C 136.742188 249.605469 137.351562 259.78125 139.042969 269.785156 C 139.183594 270.601562 138.632812 271.375 137.816406 271.515625 C 137.730469 271.527344 137.644531 271.535156 137.5625 271.535156" style="fill: rgb(84, 84, 84);"/></g><g id="__id676_s3t2f7lb3"><path d="M 217.824219 313.007812 C 217.347656 313.007812 216.878906 312.78125 216.585938 312.355469 C 216.117188 311.671875 216.292969 310.738281 216.976562 310.269531 C 228.316406 302.5 240.226562 295.234375 252.378906 288.675781 C 255.523438 286.972656 258.628906 285.347656 261.597656 283.84375 L 261.851562 283.71875 C 262.035156 283.621094 262.21875 283.53125 262.398438 283.445312 C 263.132812 283.066406 263.925781 282.675781 264.714844 282.285156 C 281.992188 273.714844 299.933594 266.386719 318.109375 260.480469 C 320.195312 259.804688 322.300781 259.136719 324.40625 258.46875 C 338.902344 253.875 353.894531 249.125 365.5625 239.527344 C 366.203125 239 367.148438 239.09375 367.675781 239.734375 C 368.199219 240.371094 368.109375 241.316406 367.46875 241.84375 C 355.351562 251.808594 340.082031 256.648438 325.316406 261.328125 C 323.214844 261.992188 321.117188 262.65625 319.035156 263.335938 C 301 269.195312 283.191406 276.464844 266.109375 284.941406 C 265.269531 285.359375 264.492188 285.738281 263.730469 286.132812 C 263.527344 286.230469 263.367188 286.308594 263.210938 286.390625 L 262.945312 286.527344 C 260.007812 288.011719 256.929688 289.625 253.804688 291.316406 C 241.742188 297.824219 229.925781 305.035156 218.671875 312.746094 C 218.410156 312.921875 218.117188 313.007812 217.824219 313.007812" style="fill: rgb(84, 84, 84);"/></g><g id="__id677_s3t2f7lb3"><path d="M 263.035156 286.265625 C 262.785156 286.265625 262.535156 286.203125 262.304688 286.066406 C 261.589844 285.652344 261.328125 284.761719 261.746094 284.046875 L 261.777344 283.988281 C 262.015625 283.585938 262.25 283.179688 262.476562 282.773438 L 263.757812 280.535156 C 268.976562 271.414062 274.367188 261.984375 282.035156 254.464844 C 297.699219 239.082031 319.851562 233.984375 341.277344 229.058594 C 344.222656 228.378906 347.15625 227.703125 350.054688 227.007812 C 368.828125 222.476562 382.863281 216.414062 392.96875 208.476562 C 393.621094 207.964844 394.566406 208.078125 395.074219 208.730469 C 395.589844 209.378906 395.476562 210.324219 394.824219 210.835938 C 384.371094 219.046875 369.960938 225.289062 350.757812 229.921875 C 347.847656 230.625 344.90625 231.300781 341.949219 231.980469 C 320.929688 236.816406 299.195312 241.816406 284.140625 256.605469 C 276.765625 263.835938 271.476562 273.082031 266.359375 282.027344 L 265.085938 284.25 C 264.863281 284.652344 264.617188 285.074219 264.371094 285.496094 C 264.089844 285.984375 263.566406 286.265625 263.035156 286.265625" style="fill: rgb(84, 84, 84);"/></g><g id="__id678_s3t2f7lb3"><path d="M 274.304688 285.347656 C 271.320312 285.347656 268.335938 285.265625 265.359375 285.097656 C 264.816406 285.074219 264.25 285.035156 263.6875 285 C 262.859375 284.945312 262.234375 284.230469 262.289062 283.40625 C 262.34375 282.578125 263.066406 281.957031 263.882812 282.007812 C 264.425781 282.042969 264.964844 282.078125 265.507812 282.101562 C 290.480469 283.507812 315.769531 278.894531 338.695312 268.769531 C 342.492188 267.09375 346.3125 265.21875 350.054688 263.195312 C 365.214844 254.96875 375.863281 245.75 382.617188 235.015625 C 386.984375 228.066406 390.191406 219.667969 392.429688 209.339844 C 392.605469 208.527344 393.402344 208.011719 394.214844 208.1875 C 395.023438 208.363281 395.539062 209.164062 395.363281 209.972656 C 393.050781 220.648438 389.710938 229.363281 385.15625 236.609375 C 378.125 247.796875 367.109375 257.355469 351.480469 265.832031 C 347.671875 267.894531 343.777344 269.808594 339.90625 271.515625 C 319.289062 280.621094 296.78125 285.347656 274.304688 285.347656" style="fill: rgb(84, 84, 84);"/></g><g clip-path="url(#__id668_s3t2f7lb3)" id="__id679_s3t2f7lb3"><path d="M 400.800781 275.566406 C 400.703125 275.566406 400.609375 275.558594 400.511719 275.539062 C 395.464844 274.554688 390.394531 273.132812 385.441406 271.308594 C 384.441406 270.941406 383.449219 270.554688 382.457031 270.167969 C 379.136719 268.878906 375.703125 267.542969 372.21875 266.925781 C 364.636719 265.574219 357.140625 267.445312 349.203125 269.433594 C 346.058594 270.21875 342.804688 271.035156 339.570312 271.621094 C 339.242188 271.683594 338.890625 271.746094 338.535156 271.804688 C 337.710938 271.941406 336.914062 271.394531 336.777344 270.578125 C 336.640625 269.761719 337.15625 268.992188 337.972656 268.855469 C 337.976562 268.855469 338.039062 268.84375 338.039062 268.84375 C 338.363281 268.789062 338.683594 268.738281 339.007812 268.671875 C 342.171875 268.101562 345.375 267.296875 348.476562 266.523438 C 356.367188 264.546875 364.53125 262.503906 372.746094 263.972656 C 376.515625 264.640625 380.089844 266.03125 383.542969 267.371094 C 384.523438 267.753906 385.5 268.132812 386.484375 268.496094 C 391.28125 270.261719 396.195312 271.640625 401.085938 272.59375 C 401.898438 272.753906 402.429688 273.542969 402.273438 274.355469 C 402.132812 275.070312 401.503906 275.566406 400.800781 275.566406" style="fill: rgb(84, 84, 84);"/></g><g clip-path="url(#__id669_s3t2f7lb3)" id="__id680_s3t2f7lb3"><path d="M 308.617188 306.085938 C 290.023438 306.085938 272.332031 302.074219 257.46875 294.214844 C 255.671875 293.269531 253.933594 292.277344 252.304688 291.273438 C 251.597656 290.839844 251.378906 289.914062 251.8125 289.210938 C 252.25 288.503906 253.175781 288.289062 253.878906 288.71875 C 255.449219 289.691406 257.128906 290.644531 258.867188 291.5625 C 282.070312 303.828125 312.4375 306.445312 342.179688 298.738281 C 360.539062 293.972656 379.453125 285.488281 400.011719 272.792969 C 400.714844 272.359375 401.640625 272.574219 402.074219 273.28125 C 402.511719 273.984375 402.292969 274.910156 401.585938 275.34375 C 380.773438 288.199219 361.585938 296.800781 342.933594 301.640625 C 331.449219 304.617188 319.867188 306.085938 308.617188 306.085938" style="fill: rgb(84, 84, 84);"/></g><g id="__id681_s3t2f7lb3"><path d="M 190.25 386.246094 C 189.589844 386.246094 188.984375 385.804688 188.800781 385.136719 C 188.144531 382.710938 187.40625 380.234375 186.605469 377.78125 C 182.882812 366.289062 178.066406 355.121094 171.984375 341.894531 C 171.242188 340.273438 170.496094 338.667969 169.753906 337.058594 C 168.121094 333.53125 166.476562 329.992188 164.835938 326.464844 C 160.460938 317.078125 155.25 306.042969 149.757812 295.351562 C 145.167969 286.378906 140.757812 278.347656 136.273438 270.800781 C 130.832031 261.632812 125.417969 253.433594 119.722656 245.730469 C 119.6875 245.683594 119.65625 245.636719 119.628906 245.585938 C 119.621094 245.578125 119.546875 245.480469 119.539062 245.472656 C 114.796875 239.070312 109.632812 232.746094 104.640625 226.628906 C 94.558594 214.269531 84.128906 201.488281 76.394531 187.1875 C 63.324219 163.027344 57.191406 134.199219 57.089844 96.460938 C 57.089844 95.632812 57.757812 94.960938 58.585938 94.957031 C 58.589844 94.957031 58.589844 94.957031 58.589844 94.957031 C 59.417969 94.957031 60.089844 95.628906 60.089844 96.453125 C 60.191406 133.675781 66.210938 162.054688 79.03125 185.761719 C 86.632812 199.8125 96.96875 212.480469 106.964844 224.730469 C 111.980469 230.875 117.164062 237.230469 121.964844 243.707031 C 122.054688 243.828125 122.117188 243.914062 122.171875 243.996094 C 127.914062 251.765625 133.371094 260.03125 138.855469 269.269531 C 143.371094 276.871094 147.8125 284.957031 152.429688 293.984375 C 157.941406 304.71875 163.167969 315.785156 167.554688 325.195312 C 169.199219 328.726562 170.84375 332.269531 172.476562 335.800781 C 173.222656 337.410156 173.964844 339.019531 174.710938 340.640625 C 180.839844 353.964844 185.691406 365.222656 189.457031 376.851562 C 190.273438 379.351562 191.027344 381.875 191.699219 384.351562 C 191.914062 385.152344 191.441406 385.976562 190.640625 386.191406 C 190.511719 386.226562 190.378906 386.246094 190.25 386.246094" style="fill: rgb(84, 84, 84);"/></g><g id="__id682_s3t2f7lb3"><path d="M 250.472656 266.960938 C 250.140625 266.960938 249.804688 266.851562 249.523438 266.625 C 248.882812 266.101562 248.789062 265.15625 249.3125 264.511719 C 255.589844 256.816406 262.421875 248.984375 269.613281 241.238281 C 278.257812 231.929688 287.570312 222.578125 297.296875 213.449219 C 308.007812 203.375 320.148438 191.957031 323.90625 178.125 C 324.121094 177.324219 324.949219 176.851562 325.746094 177.070312 C 326.546875 177.285156 327.019531 178.109375 326.800781 178.910156 C 322.824219 193.5625 310.351562 205.289062 299.347656 215.632812 C 289.675781 224.71875 280.410156 234.019531 271.8125 243.277344 C 264.664062 250.980469 257.875 258.761719 251.636719 266.410156 C 251.339844 266.773438 250.90625 266.960938 250.472656 266.960938" style="fill: rgb(84, 84, 84);"/></g><g id="__id683_s3t2f7lb3"><path d="M 188.03125 378.8125 C 187.886719 378.8125 187.742188 378.792969 187.601562 378.75 C 186.804688 378.515625 186.355469 377.679688 186.59375 376.882812 C 186.941406 375.71875 187.40625 374.179688 187.929688 372.632812 C 194.589844 352.023438 204.21875 331.191406 216.539062 310.734375 C 220.660156 303.867188 225.285156 296.757812 230.277344 289.605469 C 236.183594 281.179688 242.582031 272.738281 249.300781 264.511719 C 249.824219 263.871094 250.769531 263.773438 251.410156 264.300781 C 252.054688 264.824219 252.148438 265.769531 251.625 266.410156 C 244.953125 274.578125 238.597656 282.960938 232.734375 291.324219 C 227.785156 298.421875 223.199219 305.472656 219.109375 312.28125 C 206.90625 332.542969 197.375 353.164062 190.777344 373.574219 C 190.265625 375.09375 189.808594 376.601562 189.464844 377.742188 C 189.273438 378.394531 188.675781 378.8125 188.03125 378.8125" style="fill: rgb(84, 84, 84);"/></g><g id="__id684_s3t2f7lb3"><path d="M 213.632812 115.722656 C 213.40625 115.722656 213.175781 115.671875 212.960938 115.5625 C 212.21875 115.191406 211.921875 114.289062 212.292969 113.550781 C 213.429688 111.289062 215.761719 109.625 217.816406 108.160156 L 218.386719 107.75 C 223.550781 104.027344 227.261719 98.023438 228.570312 91.285156 C 228.902344 89.53125 229.070312 87.746094 229.070312 85.980469 C 229.070312 84.445312 228.929688 82.921875 228.652344 81.457031 C 228.5 80.640625 229.035156 79.855469 229.847656 79.703125 C 230.652344 79.546875 231.445312 80.085938 231.601562 80.898438 C 231.914062 82.546875 232.070312 84.257812 232.070312 85.980469 C 232.070312 87.933594 231.886719 89.90625 231.515625 91.851562 C 230.066406 99.339844 225.917969 106.015625 220.140625 110.183594 L 219.558594 110.601562 C 217.785156 111.863281 215.777344 113.300781 214.972656 114.898438 C 214.710938 115.421875 214.183594 115.722656 213.632812 115.722656" style="fill: rgb(84, 84, 84);"/></g><g id="__id685_s3t2f7lb3"><path d="M 211.449219 116.464844 C 211.023438 116.464844 210.605469 116.28125 210.3125 115.933594 C 210.234375 115.839844 210.171875 115.75 210.101562 115.652344 C 205.683594 109.570312 205.277344 101.355469 205.460938 94.117188 L 205.484375 93.113281 C 205.625 87.910156 205.773438 82.527344 204.566406 77.722656 C 204.367188 76.921875 204.855469 76.105469 205.660156 75.90625 C 206.464844 75.699219 207.277344 76.191406 207.480469 76.996094 C 208.78125 82.195312 208.632812 87.789062 208.484375 93.195312 L 208.457031 94.191406 C 208.289062 100.929688 208.636719 108.53125 212.507812 113.859375 L 212.609375 114.003906 C 213.128906 114.644531 213.042969 115.59375 212.40625 116.117188 C 212.125 116.347656 211.785156 116.464844 211.449219 116.464844" style="fill: rgb(84, 84, 84);"/></g><g clip-path="url(#__id670_s3t2f7lb3)" id="__id686_s3t2f7lb3"><path d="M 179.039062 499.371094 C 178.851562 499.371094 178.664062 499.335938 178.484375 499.261719 C 177.714844 498.957031 177.339844 498.085938 177.644531 497.316406 C 191.964844 461.339844 191.445312 422.003906 188.753906 384.851562 C 188.476562 380.980469 188.164062 377.105469 187.855469 373.234375 C 187.488281 368.789062 187.105469 364.335938 186.71875 359.878906 C 184.800781 337.648438 182.816406 314.660156 183.167969 292.316406 C 183.765625 254.574219 191.148438 216.914062 198.289062 180.492188 C 202.503906 159.015625 206.855469 136.808594 209.769531 114.832031 L 209.804688 114.542969 C 209.914062 113.722656 210.660156 113.140625 211.488281 113.253906 C 212.3125 113.363281 212.890625 114.117188 212.78125 114.9375 L 212.746094 115.210938 C 209.816406 137.296875 205.453125 159.550781 201.234375 181.070312 C 194.121094 217.363281 186.761719 254.890625 186.167969 292.363281 C 185.816406 314.554688 187.796875 337.464844 189.707031 359.621094 C 190.09375 364.078125 190.476562 368.535156 190.84375 372.988281 C 191.15625 376.875 191.46875 380.757812 191.746094 384.636719 C 194.464844 422.144531 194.976562 461.886719 180.433594 498.425781 C 180.199219 499.011719 179.632812 499.371094 179.039062 499.371094" style="fill: rgb(84, 84, 84);"/></g><g id="__id687_s3t2f7lb3"><path d="M 222.671875 83.421875 C 221.710938 83.421875 220.742188 83.34375 219.800781 83.113281 C 218.992188 82.921875 218.5 82.109375 218.691406 81.304688 C 218.886719 80.5 219.699219 80.003906 220.503906 80.199219 C 221.820312 80.519531 223.351562 80.441406 224.804688 80.308594 C 226.570312 80.148438 228.285156 79.941406 229.898438 79.695312 C 249.496094 76.71875 268.230469 66.5625 281.304688 51.828125 C 282.804688 50.132812 284.027344 48.234375 284.753906 46.488281 C 285.886719 43.75 285.789062 41.566406 284.464844 40 C 283.785156 39.191406 282.800781 38.609375 281.753906 37.996094 C 281.039062 37.578125 280.304688 37.144531 279.605469 36.605469 C 276.550781 34.265625 275.101562 30.765625 273.699219 27.378906 L 273.421875 26.703125 C 269.71875 17.769531 265.625 11.769531 260.535156 7.816406 C 255.210938 3.6875 246.710938 1.101562 239.722656 4.632812 C 237.726562 5.644531 235.96875 7.074219 234.105469 8.589844 C 232.6875 9.746094 231.214844 10.945312 229.605469 11.960938 C 225.914062 14.285156 220.148438 15.835938 216.03125 12.53125 C 214.917969 11.636719 214.128906 10.53125 213.367188 9.460938 C 212.617188 8.410156 211.90625 7.417969 210.988281 6.789062 C 208.71875 5.234375 205.507812 6.179688 203.640625 7.855469 C 202.1875 9.160156 201.0625 11.015625 200.203125 13.527344 C 199.96875 14.203125 199.757812 14.933594 199.53125 15.832031 C 195.164062 33.210938 201.53125 50.757812 209.652344 70.253906 C 210.410156 72.066406 211.183594 73.597656 212.015625 74.9375 C 212.449219 75.640625 212.234375 76.5625 211.53125 77 C 210.828125 77.4375 209.902344 77.222656 209.464844 76.519531 C 208.550781 75.042969 207.707031 73.371094 206.882812 71.410156 C 200.457031 55.980469 191.65625 34.859375 196.621094 15.101562 C 196.867188 14.113281 197.105469 13.304688 197.367188 12.550781 C 198.394531 9.546875 199.792969 7.277344 201.636719 5.625 C 204.421875 3.121094 209.109375 1.867188 212.683594 4.316406 C 214.039062 5.238281 214.9375 6.5 215.808594 7.71875 C 216.480469 8.664062 217.121094 9.558594 217.910156 10.195312 C 220.605469 12.359375 224.925781 11.367188 228.007812 9.421875 C 229.460938 8.503906 230.796875 7.414062 232.214844 6.265625 C 234.113281 4.714844 236.082031 3.109375 238.371094 1.957031 C 245.429688 -1.613281 255.078125 -0.210938 262.375 5.445312 C 269.625 11.078125 273.734375 19.617188 276.191406 25.554688 L 276.472656 26.230469 C 277.722656 29.25 279.015625 32.375 281.433594 34.226562 C 281.984375 34.652344 282.609375 35.019531 283.273438 35.410156 C 284.492188 36.125 285.757812 36.867188 286.761719 38.070312 C 288.835938 40.523438 289.101562 43.832031 287.523438 47.636719 C 286.679688 49.679688 285.265625 51.875 283.550781 53.816406 C 270.019531 69.070312 250.628906 79.582031 230.351562 82.660156 C 228.679688 82.917969 226.902344 83.132812 225.074219 83.296875 C 224.292969 83.367188 223.484375 83.421875 222.671875 83.421875" style="fill: rgb(84, 84, 84);"/></g><g id="__id688_s3t2f7lb3"><path d="M 219.15625 83.613281 L 219.023438 83.613281 C 215.566406 83.402344 212.503906 81.199219 209.820312 77.074219 C 209.753906 76.984375 209.65625 76.835938 209.566406 76.6875 L 209.480469 76.554688 C 209.03125 75.855469 209.230469 74.929688 209.925781 74.480469 C 210.621094 74.03125 211.550781 74.230469 212 74.925781 L 212.101562 75.082031 C 212.164062 75.183594 212.226562 75.285156 212.296875 75.382812 C 214.472656 78.726562 216.753906 80.46875 219.117188 80.617188 L 219.15625 80.613281 C 219.984375 80.613281 220.65625 81.285156 220.65625 82.113281 C 220.65625 82.941406 219.984375 83.613281 219.15625 83.613281" style="fill: rgb(84, 84, 84);"/></g><g id="__id689_s3t2f7lb3"><path d="M 203.1875 79.011719 C 200.019531 79.011719 196.738281 78.492188 193.554688 77.480469 C 186.175781 75.152344 179.824219 70.601562 174.589844 66.460938 C 164.855469 58.785156 155.863281 50.023438 147.863281 40.421875 C 143.742188 35.480469 139.820312 30.023438 139.0625 23.628906 C 138.285156 16.949219 142.1875 9.054688 149.238281 7.9375 C 152.105469 7.484375 154.835938 8.226562 157.46875 8.941406 C 159.710938 9.554688 161.828125 10.132812 163.914062 9.964844 C 166.863281 9.726562 169.546875 8.035156 172.390625 6.246094 C 175.804688 4.09375 179.335938 1.871094 183.570312 2.160156 C 187.84375 2.449219 191.089844 5.191406 194.230469 7.84375 C 196.003906 9.34375 197.675781 10.757812 199.488281 11.71875 C 200.21875 12.105469 200.496094 13.015625 200.109375 13.746094 C 199.722656 14.476562 198.8125 14.757812 198.082031 14.367188 C 195.988281 13.257812 194.109375 11.667969 192.292969 10.136719 C 189.394531 7.6875 186.65625 5.375 183.367188 5.152344 C 180.101562 4.933594 177.136719 6.804688 173.988281 8.785156 C 170.964844 10.6875 167.839844 12.660156 164.152344 12.953125 C 161.546875 13.164062 159.074219 12.488281 156.679688 11.839844 C 154.242188 11.175781 151.945312 10.546875 149.707031 10.898438 C 144.4375 11.734375 141.4375 18.09375 142.042969 23.277344 C 142.710938 28.894531 146.339844 33.914062 150.167969 38.503906 C 158.035156 47.945312 166.878906 56.558594 176.449219 64.105469 C 181.472656 68.078125 187.539062 72.4375 194.460938 74.621094 C 198.269531 75.832031 202.210938 76.265625 205.863281 75.867188 C 207.199219 75.730469 208.488281 75.476562 209.699219 75.117188 L 209.867188 75.066406 C 210.105469 74.992188 210.351562 74.917969 210.589844 74.835938 C 211.371094 74.566406 212.226562 74.984375 212.496094 75.765625 C 212.765625 76.550781 212.351562 77.402344 211.566406 77.671875 C 211.296875 77.765625 211.019531 77.851562 210.746094 77.9375 L 210.570312 77.988281 C 209.167969 78.40625 207.695312 78.695312 206.179688 78.851562 C 205.195312 78.957031 204.199219 79.011719 203.1875 79.011719" style="fill: rgb(84, 84, 84);"/></g><g id="__id690_s3t2f7lb3"><path d="M 253.796875 94.632812 C 245.765625 94.632812 237.742188 94.171875 229.835938 93.058594 C 229.015625 92.941406 228.441406 92.183594 228.558594 91.363281 C 228.671875 90.542969 229.425781 89.972656 230.253906 90.085938 C 258.582031 94.070312 288.617188 89.539062 315.117188 85.539062 C 317.011719 85.25 319.023438 84.773438 319.574219 83.4375 C 320.078125 82.207031 319.210938 80.96875 317.753906 79.050781 C 316.707031 77.667969 315.625 76.242188 315.15625 74.523438 C 314.492188 72.09375 315.261719 69.589844 315.9375 67.382812 C 316.773438 64.640625 317.214844 62.882812 316.207031 61.535156 C 315.410156 60.472656 313.847656 60.046875 312.195312 59.597656 L 311.675781 59.453125 C 307.152344 58.203125 302.960938 56.058594 298.902344 53.988281 C 297.019531 53.027344 295.074219 52.03125 293.140625 51.152344 C 290.484375 49.949219 288.078125 49.089844 285.777344 48.519531 C 284.972656 48.320312 284.484375 47.507812 284.683594 46.699219 C 284.882812 45.898438 285.691406 45.410156 286.496094 45.605469 C 288.980469 46.21875 291.558594 47.140625 294.378906 48.421875 C 296.378906 49.328125 298.355469 50.339844 300.269531 51.316406 C 304.191406 53.320312 308.246094 55.390625 312.480469 56.5625 L 312.984375 56.703125 C 314.957031 57.238281 317.191406 57.847656 318.609375 59.738281 C 320.601562 62.402344 319.648438 65.515625 318.804688 68.261719 C 318.191406 70.257812 317.613281 72.140625 318.050781 73.734375 C 318.363281 74.890625 319.269531 76.082031 320.144531 77.234375 C 321.730469 79.324219 323.527344 81.691406 322.351562 84.578125 C 321.074219 87.664062 317.21875 88.253906 315.570312 88.507812 C 296.207031 91.425781 274.972656 94.632812 253.796875 94.632812" style="fill: rgb(84, 84, 84);"/></g><g id="__id691_s3t2f7lb3"><path d="M 218.183594 82.351562 C 217.683594 82.351562 217.195312 82.105469 216.910156 81.652344 C 215.582031 79.53125 215.066406 77.03125 214.707031 74.640625 C 213.453125 66.089844 213.6875 57.441406 215.402344 48.9375 C 215.566406 48.125 216.355469 47.597656 217.171875 47.765625 C 217.984375 47.929688 218.507812 48.71875 218.347656 49.53125 C 216.695312 57.695312 216.472656 65.996094 217.675781 74.199219 C 217.984375 76.261719 218.414062 78.402344 219.453125 80.054688 C 219.894531 80.757812 219.683594 81.683594 218.980469 82.125 C 218.730469 82.277344 218.457031 82.351562 218.183594 82.351562" style="fill: rgb(84, 84, 84);"/></g><g id="__id692_s3t2f7lb3"><path d="M 219.152344 83.613281 C 218.929688 83.613281 218.699219 83.5625 218.484375 83.453125 C 218.3125 83.367188 218.144531 83.238281 218.011719 83.089844 C 217.625 82.6875 217.265625 82.210938 216.914062 81.632812 C 216.484375 80.925781 216.707031 80.003906 217.414062 79.574219 C 218.121094 79.140625 219.046875 79.363281 219.476562 80.070312 C 219.714844 80.464844 219.949219 80.777344 220.191406 81.027344 C 220.65625 81.46875 220.800781 82.179688 220.496094 82.785156 C 220.234375 83.308594 219.703125 83.613281 219.152344 83.613281" style="fill: rgb(84, 84, 84);"/></g><g id="__id693_s3t2f7lb3"><path d="M 220.152344 83.15625 C 219.574219 83.15625 219.027344 82.824219 218.777344 82.265625 C 218.445312 81.507812 218.785156 80.621094 219.542969 80.285156 C 221.84375 79.269531 224.277344 77.644531 226.988281 75.320312 L 227.1875 75.148438 C 227.3125 75.039062 227.441406 74.929688 227.5625 74.816406 C 235.121094 68.195312 241.46875 59.976562 245.964844 51.011719 C 246.335938 50.269531 247.238281 49.972656 247.976562 50.34375 C 248.71875 50.714844 249.015625 51.613281 248.644531 52.355469 C 243.980469 61.664062 237.386719 70.199219 229.578125 77.035156 C 229.464844 77.144531 229.308594 77.28125 229.148438 77.417969 L 228.960938 77.585938 C 226.007812 80.113281 223.328125 81.890625 220.757812 83.027344 C 220.5625 83.117188 220.355469 83.15625 220.152344 83.15625" style="fill: rgb(84, 84, 84);"/></g><g id="__id694_s3t2f7lb3"><path d="M 219.019531 80.613281 Z M 219.023438 83.613281 C 218.195312 83.613281 217.523438 82.941406 217.523438 82.113281 C 217.523438 81.449219 217.953125 80.890625 218.546875 80.691406 C 218.570312 80.679688 218.59375 80.671875 218.613281 80.664062 C 218.90625 80.558594 219.214844 80.433594 219.507812 80.296875 C 220.261719 79.945312 221.152344 80.273438 221.5 81.027344 C 221.847656 81.777344 221.523438 82.667969 220.769531 83.019531 C 220.429688 83.175781 220.070312 83.324219 219.726562 83.453125 C 219.503906 83.558594 219.265625 83.613281 219.023438 83.613281" style="fill: rgb(84, 84, 84);"/></g><g id="__id695_s3t2f7lb3"><path d="M 210.128906 78.054688 C 209.777344 78.054688 209.425781 77.933594 209.144531 77.6875 C 208.761719 77.355469 208.390625 76.996094 208.023438 76.640625 C 200.109375 69.199219 194.214844 62.660156 189.453125 56.054688 C 182.015625 45.730469 177.375 35.140625 175.660156 24.578125 C 175.527344 23.761719 176.085938 22.988281 176.902344 22.859375 C 177.722656 22.730469 178.488281 23.28125 178.621094 24.097656 C 180.261719 34.195312 184.722656 44.359375 191.886719 54.300781 C 196.53125 60.746094 202.308594 67.148438 210.0625 74.441406 C 210.4375 74.804688 210.769531 75.125 211.113281 75.425781 C 211.738281 75.96875 211.804688 76.914062 211.257812 77.539062 C 210.960938 77.882812 210.546875 78.054688 210.128906 78.054688" style="fill: rgb(84, 84, 84);"/></g><g id="__id696_s3t2f7lb3"><path d="M 210.738281 77.234375 C 210.648438 77.234375 210.5625 77.226562 210.476562 77.210938 C 209.914062 77.160156 209.363281 77.101562 208.816406 77.019531 C 207.578125 76.855469 206.265625 76.621094 204.941406 76.328125 C 188.558594 72.714844 174.597656 61.03125 168.511719 45.84375 C 168.203125 45.074219 168.578125 44.199219 169.347656 43.894531 C 170.113281 43.585938 170.988281 43.957031 171.296875 44.726562 C 177.019531 59.007812 190.15625 69.996094 205.589844 73.398438 C 206.832031 73.671875 208.058594 73.890625 209.234375 74.046875 C 209.789062 74.132812 210.320312 74.1875 210.863281 74.230469 C 211.640625 74.296875 212.238281 74.945312 212.238281 75.726562 C 212.238281 76.554688 211.566406 77.234375 210.738281 77.234375" style="fill: rgb(84, 84, 84);"/></g><g id="__id697_s3t2f7lb3"><path d="M 250.472656 266.960938 C 250.3125 266.960938 250.148438 266.9375 249.988281 266.878906 C 249.203125 266.613281 248.785156 265.757812 249.054688 264.976562 C 257.214844 241.128906 255.46875 213.984375 244.386719 192.371094 C 244.007812 191.632812 244.296875 190.730469 245.035156 190.351562 C 245.773438 189.972656 246.675781 190.261719 247.054688 191 C 258.675781 213.660156 260.4375 240.976562 251.894531 265.945312 C 251.679688 266.570312 251.097656 266.960938 250.472656 266.960938" style="fill: rgb(84, 84, 84);"/></g><g id="__id698_s3t2f7lb3"><path d="M 231.507812 291.964844 C 231.332031 291.964844 231.152344 291.933594 230.976562 291.867188 C 230.199219 291.574219 229.8125 290.707031 230.105469 289.933594 C 234.078125 279.464844 234.394531 266.882812 231.105469 250.339844 C 230.226562 245.941406 229.167969 241.480469 228.144531 237.164062 C 225.980469 228.074219 223.746094 218.671875 223.050781 209.152344 C 221.222656 184.226562 229.410156 158.132812 248.074219 129.382812 C 248.527344 128.6875 249.457031 128.492188 250.148438 128.941406 C 250.84375 129.394531 251.042969 130.324219 250.589844 131.019531 C 232.296875 159.199219 224.265625 184.683594 226.039062 208.933594 C 226.722656 218.210938 228.929688 227.496094 231.0625 236.472656 C 232.09375 240.8125 233.160156 245.300781 234.046875 249.753906 C 237.453125 266.875 237.089844 279.980469 232.910156 290.996094 C 232.683594 291.597656 232.113281 291.964844 231.507812 291.964844" style="fill: rgb(84, 84, 84);"/></g><g id="__id699_s3t2f7lb3"><path d="M 270.714844 243.757812 C 270.613281 243.757812 270.511719 243.746094 270.410156 243.726562 C 269.597656 243.5625 269.074219 242.765625 269.242188 241.957031 C 273.617188 220.675781 271.730469 198.207031 263.929688 178.6875 C 262.265625 174.507812 260.300781 170.347656 258.402344 166.324219 C 255.757812 160.722656 253.023438 154.925781 251.007812 148.910156 C 248.785156 142.328125 247.71875 136.023438 247.832031 130.171875 C 247.851562 129.355469 248.515625 128.695312 249.332031 128.695312 C 249.339844 128.695312 249.34375 128.695312 249.347656 128.695312 C 250.171875 128.703125 250.832031 129.367188 250.832031 130.1875 L 250.832031 130.199219 C 250.726562 135.734375 251.738281 141.699219 253.851562 147.957031 C 255.8125 153.804688 258.507812 159.519531 261.117188 165.046875 C 263.035156 169.109375 265.015625 173.3125 266.714844 177.578125 C 274.730469 197.632812 276.671875 220.710938 272.183594 242.558594 C 272.035156 243.269531 271.410156 243.757812 270.714844 243.757812" style="fill: rgb(84, 84, 84);"/></g><g id="__id700_s3t2f7lb3"><path d="M 166.195312 327.328125 C 165.714844 327.328125 165.242188 327.101562 164.953125 326.671875 C 161.605469 321.753906 157.363281 317.191406 152.34375 313.105469 C 149.210938 310.566406 145.695312 308.128906 141.898438 305.859375 C 137.535156 303.238281 132.558594 300.679688 126.675781 298.039062 C 124.21875 296.933594 121.558594 295.789062 118.53125 294.542969 C 112.945312 292.230469 107.210938 289.976562 101.664062 287.800781 C 87.238281 282.140625 72.320312 276.289062 58.460938 268.734375 C 36.035156 256.511719 20.042969 241.507812 10.925781 224.132812 C 4.523438 211.910156 0.949219 197.578125 0.00390625 180.316406 C -0.0429688 179.488281 0.589844 178.78125 1.417969 178.734375 C 2.234375 178.675781 2.953125 179.324219 2.996094 180.152344 C 3.921875 196.976562 7.386719 210.90625 13.585938 222.738281 C 22.417969 239.578125 38 254.167969 59.898438 266.101562 C 73.59375 273.566406 88.417969 279.382812 102.757812 285.007812 C 108.316406 287.191406 114.066406 289.445312 119.675781 291.769531 C 122.730469 293.027344 125.421875 294.183594 127.90625 295.304688 C 133.898438 297.992188 138.980469 300.605469 143.4375 303.285156 C 147.355469 305.625 150.992188 308.144531 154.234375 310.777344 C 159.484375 315.046875 163.925781 319.828125 167.433594 324.984375 C 167.898438 325.671875 167.722656 326.605469 167.039062 327.070312 C 166.777344 327.246094 166.484375 327.328125 166.195312 327.328125" style="fill: rgb(84, 84, 84);"/></g><g id="__id701_s3t2f7lb3"><path d="M 142.664062 306.070312 C 141.960938 306.070312 141.335938 305.574219 141.195312 304.859375 C 139.421875 295.839844 135.558594 286.699219 130.027344 278.417969 C 119.605469 262.773438 104.542969 251.105469 92.585938 242.691406 C 82.261719 235.433594 71.480469 228.710938 60.546875 222.710938 C 56.894531 220.707031 53.128906 218.730469 49.492188 216.816406 C 38.769531 211.183594 27.679688 205.359375 17.769531 197.976562 C 10.84375 192.816406 4.972656 187.15625 0.316406 181.152344 C -0.191406 180.5 -0.0742188 179.554688 0.582031 179.046875 C 1.234375 178.539062 2.179688 178.660156 2.683594 179.3125 C 7.175781 185.105469 12.855469 190.574219 19.5625 195.570312 C 29.28125 202.8125 40.265625 208.582031 50.886719 214.160156 C 54.539062 216.078125 58.3125 218.0625 61.988281 220.078125 C 73.019531 226.132812 83.894531 232.914062 94.3125 240.238281 C 106.484375 248.804688 121.824219 260.695312 132.523438 276.753906 C 138.269531 285.355469 142.289062 294.875 144.136719 304.28125 C 144.296875 305.09375 143.769531 305.882812 142.957031 306.042969 C 142.859375 306.0625 142.761719 306.070312 142.664062 306.070312" style="fill: rgb(84, 84, 84);"/></g><g id="__id702_s3t2f7lb3"><path d="M 127.289062 298.171875 C 126.753906 298.171875 126.234375 297.882812 125.964844 297.375 C 120.140625 286.441406 111.847656 277 101.988281 270.074219 C 95.03125 265.175781 87.179688 261.382812 79.589844 257.714844 C 74.960938 255.480469 70.175781 253.167969 65.601562 250.613281 C 50.421875 242.148438 40.734375 232.050781 36.8125 220.597656 C 36.542969 219.8125 36.960938 218.960938 37.746094 218.691406 C 38.53125 218.421875 39.382812 218.839844 39.652344 219.625 C 43.328125 230.355469 52.550781 239.898438 67.0625 247.992188 C 71.558594 250.503906 76.304688 252.796875 80.894531 255.015625 C 88.59375 258.734375 96.554688 262.582031 103.710938 267.621094 C 113.957031 274.816406 122.566406 284.617188 128.613281 295.964844 C 129.003906 296.695312 128.726562 297.605469 127.992188 297.996094 C 127.769531 298.113281 127.527344 298.171875 127.289062 298.171875" style="fill: rgb(84, 84, 84);"/></g><g id="__id703_s3t2f7lb3"><path d="M 334.175781 160.941406 C 333.460938 160.941406 332.824219 160.429688 332.699219 159.699219 C 332.558594 158.886719 333.101562 158.109375 333.917969 157.964844 L 334.0625 157.941406 C 334.277344 157.902344 334.5 157.863281 334.722656 157.816406 C 336.632812 157.492188 338.496094 157 340.324219 156.351562 C 344.691406 154.808594 348.683594 152.382812 351.863281 149.332031 C 357.957031 143.496094 361.28125 135.222656 360.757812 127.191406 C 360.636719 125.316406 360.320312 123.480469 359.988281 121.535156 C 359.816406 120.527344 359.640625 119.519531 359.496094 118.503906 C 359.3125 117.183594 359.191406 116.089844 359.113281 115.054688 C 359.050781 114.230469 359.671875 113.511719 360.496094 113.449219 C 361.320312 113.390625 362.042969 114.003906 362.105469 114.832031 C 362.179688 115.800781 362.292969 116.835938 362.46875 118.085938 C 362.609375 119.066406 362.777344 120.046875 362.945312 121.027344 C 363.277344 122.964844 363.617188 124.96875 363.75 126.996094 C 364.332031 135.898438 360.664062 145.058594 353.941406 151.5 C 350.453125 154.839844 346.089844 157.496094 341.324219 159.175781 C 339.34375 159.886719 337.308594 160.421875 335.28125 160.765625 C 335.078125 160.808594 334.824219 160.851562 334.574219 160.894531 L 334.4375 160.921875 C 334.347656 160.9375 334.261719 160.941406 334.175781 160.941406" style="fill: rgb(84, 84, 84);"/></g><g id="__id704_s3t2f7lb3"><path d="M 326.308594 180.308594 C 325.910156 180.308594 325.492188 180.230469 325.085938 180.066406 C 324.886719 179.980469 324.6875 179.882812 324.484375 179.738281 C 323.707031 179.242188 323.25 178.417969 322.914062 177.816406 C 320.890625 174.03125 318.625 169.027344 319.007812 163.726562 C 319.367188 158.820312 322.613281 153.3125 328.132812 152.25 C 328.273438 152.21875 328.433594 152.191406 328.546875 152.191406 C 329.375 152.191406 330.046875 152.863281 330.046875 153.691406 C 330.046875 154.417969 329.53125 155.023438 328.84375 155.164062 C 328.804688 155.175781 328.765625 155.183594 328.730469 155.191406 C 324.71875 155.945312 322.269531 160.261719 322 163.945312 C 321.671875 168.476562 323.726562 172.972656 325.546875 176.382812 C 325.707031 176.664062 325.964844 177.125 326.164062 177.253906 C 326.273438 177.308594 326.316406 177.308594 326.34375 177.304688 C 326.777344 177.265625 327.417969 176.855469 327.933594 176.523438 C 328.113281 176.410156 328.292969 176.296875 328.464844 176.191406 C 329.78125 175.398438 331.1875 175.011719 332.550781 174.640625 C 333.738281 174.316406 334.859375 174.007812 335.800781 173.460938 C 337.652344 172.378906 338.898438 170.375 339.605469 167.335938 C 340.050781 165.5 340.234375 163.515625 340.351562 161.8125 C 340.40625 160.984375 341.132812 160.359375 341.953125 160.417969 C 342.777344 160.476562 343.402344 161.195312 343.34375 162.019531 C 343.214844 163.847656 343.019531 165.988281 342.523438 168.03125 C 341.625 171.898438 339.917969 174.53125 337.3125 176.054688 C 336.027344 176.800781 334.660156 177.171875 333.34375 177.535156 C 332.125 177.867188 330.972656 178.183594 330.015625 178.757812 C 329.867188 178.847656 329.710938 178.949219 329.550781 179.050781 C 328.71875 179.582031 327.777344 180.1875 326.664062 180.285156 C 326.550781 180.300781 326.429688 180.308594 326.308594 180.308594" style="fill: rgb(84, 84, 84);"/></g><g id="__id705_s3t2f7lb3"><path d="M 353.011719 113.742188 C 352.460938 113.742188 351.929688 113.4375 351.667969 112.910156 C 351.300781 112.167969 351.601562 111.269531 352.34375 110.898438 C 354.097656 110.027344 355.765625 109.085938 357.304688 108.101562 C 358 107.652344 358.929688 107.855469 359.375 108.550781 C 359.824219 109.25 359.621094 110.175781 358.925781 110.625 C 357.296875 111.671875 355.53125 112.667969 353.679688 113.585938 C 353.464844 113.691406 353.238281 113.742188 353.011719 113.742188" style="fill: rgb(84, 84, 84);"/></g><g id="__id706_s3t2f7lb3"><path d="M 334.738281 161.316406 C 334.488281 161.316406 334.238281 161.253906 334.003906 161.121094 C 333.761719 160.984375 333.519531 160.820312 333.292969 160.65625 C 332.660156 160.222656 332.023438 159.734375 331.429688 159.230469 C 329.804688 157.839844 328.390625 156.273438 327.214844 154.566406 C 325.277344 151.8125 323.917969 148.683594 323.28125 145.523438 C 321.828125 138.410156 323.734375 130.808594 328.375 125.199219 C 333.15625 119.449219 340.078125 116.398438 346.773438 113.445312 C 348.046875 112.882812 349.316406 112.320312 350.570312 111.746094 C 351.164062 111.472656 351.757812 111.1875 352.351562 110.902344 C 353.097656 110.546875 353.992188 110.859375 354.351562 111.605469 C 354.710938 112.351562 354.394531 113.25 353.648438 113.605469 C 353.039062 113.898438 352.433594 114.191406 351.824219 114.472656 C 350.558594 115.054688 349.273438 115.621094 347.984375 116.191406 C 341.605469 119.003906 335.011719 121.910156 330.683594 127.113281 C 326.679688 131.957031 324.96875 138.785156 326.222656 144.929688 C 326.777344 147.6875 327.972656 150.425781 329.679688 152.855469 C 330.714844 154.355469 331.953125 155.730469 333.375 156.945312 C 333.886719 157.382812 334.441406 157.808594 335.023438 158.207031 C 335.195312 158.328125 335.335938 158.429688 335.476562 158.507812 C 336.199219 158.914062 336.453125 159.828125 336.046875 160.550781 C 335.773438 161.039062 335.265625 161.316406 334.738281 161.316406" style="fill: rgb(84, 84, 84);"/></g><g id="__id707_s3t2f7lb3"><path d="M 333.890625 159.503906 C 333.285156 159.503906 332.71875 159.136719 332.488281 158.542969 C 329.851562 151.722656 330.257812 143.582031 333.636719 135.628906 C 336.910156 127.96875 342.390625 121.667969 346.800781 117.03125 L 346.976562 116.84375 C 348.648438 115.09375 350.375 113.28125 351.792969 111.363281 C 351.84375 111.292969 351.902344 111.226562 351.96875 111.167969 C 352.234375 110.90625 352.605469 110.742188 353.011719 110.742188 C 353.839844 110.742188 354.511719 111.414062 354.511719 112.242188 C 354.511719 112.605469 354.382812 112.9375 354.167969 113.199219 C 352.648438 115.25 350.867188 117.113281 349.148438 118.914062 L 348.972656 119.101562 C 344.738281 123.550781 339.480469 129.589844 336.398438 136.804688 C 333.371094 143.929688 332.964844 151.457031 335.289062 157.460938 C 335.585938 158.234375 335.203125 159.101562 334.429688 159.402344 C 334.253906 159.46875 334.070312 159.503906 333.890625 159.503906" style="fill: rgb(84, 84, 84);"/></g><g id="__id708_s3t2f7lb3"><path d="M 334.738281 161.316406 C 334.503906 161.316406 334.261719 161.257812 334.035156 161.140625 C 333.304688 160.75 333.027344 159.84375 333.414062 159.109375 L 333.703125 158.582031 C 335.453125 155.457031 337.191406 152.363281 338.925781 149.273438 C 340.566406 146.34375 342.210938 143.417969 343.851562 140.488281 C 349.542969 130.3125 354.503906 121.089844 357.582031 111.253906 C 357.828125 110.464844 358.667969 110.023438 359.460938 110.269531 C 360.253906 110.519531 360.691406 111.359375 360.445312 112.152344 C 357.285156 122.246094 352.03125 132.007812 346.472656 141.953125 C 344.828125 144.882812 343.1875 147.8125 341.542969 150.738281 C 339.808594 153.832031 338.070312 156.925781 336.339844 160.019531 L 336.066406 160.519531 C 335.796875 161.027344 335.277344 161.316406 334.738281 161.316406" style="fill: rgb(84, 84, 84);"/></g><g id="__id709_s3t2f7lb3"><path d="M 341.792969 169.1875 C 341.539062 169.1875 341.285156 169.183594 341.03125 169.175781 C 340.203125 169.15625 339.546875 168.46875 339.566406 167.640625 C 339.585938 166.824219 340.253906 166.175781 341.066406 166.175781 C 341.078125 166.175781 341.089844 166.175781 341.101562 166.179688 C 348.578125 166.359375 355.734375 163.6875 360.867188 158.867188 C 368.152344 152.023438 371.023438 140.761719 367.847656 131.480469 C 366.597656 127.832031 364.460938 124.332031 362.394531 120.945312 C 361.34375 119.226562 360.257812 117.445312 359.289062 115.65625 C 358.707031 114.597656 358.148438 113.464844 357.640625 112.304688 C 357.285156 111.5 356.96875 110.671875 356.691406 109.835938 C 356.429688 109.050781 356.855469 108.199219 357.640625 107.9375 C 358.425781 107.675781 359.273438 108.101562 359.535156 108.890625 C 359.785156 109.636719 360.070312 110.382812 360.386719 111.101562 C 360.859375 112.179688 361.378906 113.226562 361.925781 114.222656 C 362.859375 115.949219 363.921875 117.695312 364.953125 119.382812 C 367.105469 122.90625 369.332031 126.546875 370.683594 130.507812 C 374.230469 140.871094 371.035156 153.429688 362.921875 161.050781 C 357.394531 166.242188 349.730469 169.1875 341.792969 169.1875" style="fill: rgb(84, 84, 84);"/></g><g id="__id710_s3t2f7lb3"><path d="M 304.320312 297.277344 C 299.964844 297.277344 295.488281 296.894531 290.949219 296.121094 C 281.914062 294.574219 272.472656 291.507812 262.082031 286.753906 L 261.863281 286.648438 C 261.777344 286.609375 261.691406 286.570312 261.601562 286.527344 C 260.859375 286.15625 260.5625 285.253906 260.933594 284.511719 C 261.304688 283.773438 262.203125 283.472656 262.945312 283.84375 L 263.113281 283.921875 C 263.199219 283.960938 263.289062 284.003906 263.378906 284.046875 C 273.480469 288.671875 282.679688 291.660156 291.457031 293.164062 C 304.371094 295.363281 316.710938 294.296875 327.132812 290.070312 C 327.898438 289.765625 328.773438 290.132812 329.085938 290.898438 C 329.398438 291.667969 329.027344 292.542969 328.257812 292.851562 C 321.007812 295.792969 312.890625 297.277344 304.320312 297.277344" style="fill: rgb(84, 84, 84);"/></g><g id="__id711_s3t2f7lb3"><path d="M 326.527344 180.292969 C 325.753906 180.292969 325.097656 179.695312 325.035156 178.910156 C 324.835938 176.324219 325.238281 173.730469 326.199219 171.402344 C 327.097656 169.242188 328.476562 167.195312 330.421875 165.136719 C 332.085938 163.359375 333.988281 161.742188 335.828125 160.183594 C 337.164062 159.050781 338.542969 157.882812 339.785156 156.683594 C 340.382812 156.109375 341.332031 156.125 341.90625 156.722656 C 342.484375 157.316406 342.464844 158.269531 341.867188 158.84375 C 340.554688 160.105469 339.140625 161.308594 337.769531 162.46875 C 335.992188 163.976562 334.15625 165.535156 332.609375 167.191406 C 330.914062 168.984375 329.726562 170.734375 328.972656 172.550781 C 328.191406 174.441406 327.859375 176.5625 328.023438 178.675781 C 328.089844 179.503906 327.472656 180.226562 326.648438 180.289062 C 326.605469 180.289062 326.566406 180.292969 326.527344 180.292969" style="fill: rgb(84, 84, 84);"/></g><g id="__id712_s3t2f7lb3"><path d="M 240.027344 87.859375 C 236.835938 87.859375 233.640625 87.734375 230.449219 87.472656 C 229.625 87.40625 229.007812 86.683594 229.074219 85.855469 C 229.144531 85.03125 229.882812 84.414062 230.691406 84.484375 C 249.773438 86.03125 269.054688 82.800781 286.445312 75.136719 C 287.203125 74.800781 288.089844 75.144531 288.421875 75.902344 C 288.757812 76.660156 288.414062 77.546875 287.65625 77.878906 C 272.71875 84.464844 256.425781 87.859375 240.027344 87.859375" style="fill: rgb(84, 84, 84);"/></g><g id="__id713_s3t2f7lb3"><path d="M 211.007812 113.550781 C 211.007812 113.550781 211.007812 113.550781 211.003906 113.550781 C 211.007812 113.550781 211.007812 113.550781 211.007812 113.550781 Z M 211.003906 113.550781 Z M 211.253906 116.527344 C 210.535156 116.527344 209.902344 116.011719 209.777344 115.277344 C 209.644531 114.484375 210.15625 113.734375 210.933594 113.5625 C 210.976562 113.550781 211.042969 113.527344 211.058594 113.523438 C 211.722656 113.339844 212.398438 113.105469 213.070312 112.835938 C 213.835938 112.519531 214.710938 112.890625 215.023438 113.660156 C 215.335938 114.425781 214.964844 115.300781 214.199219 115.613281 C 213.421875 115.929688 212.636719 116.199219 211.863281 116.414062 C 211.773438 116.449219 211.648438 116.484375 211.507812 116.507812 C 211.421875 116.519531 211.339844 116.527344 211.253906 116.527344" style="fill: rgb(84, 84, 84);"/></g></g></svg>